<svg width="79" height="19" viewBox="0 0 79 19" fill="none" xmlns="http://www.w3.org/2000/svg">
<path d="M16.625 0H2.375C1.06519 0 0 1.06519 0 2.375V16.625C0 17.9348 1.06519 19 2.375 19H9.5V12.4688H7.125V9.5H9.5V7.125C9.5 5.15731 11.0948 3.5625 13.0625 3.5625H15.4375V6.53125H14.25C13.5945 6.53125 13.0625 6.4695 13.0625 7.125V9.5H16.0312L14.8438 12.4688H13.0625V19H16.625C17.9348 19 19 17.9348 19 16.625V2.375C19 1.06519 17.9348 0 16.625 0Z" fill="white"/>
<g clip-path="url(#clip0_19_331)">
<path d="M40.2115 10.4714C39.9069 10.294 39.4836 10.294 39.1396 10.294H38.0101V12.6215H39.0468C39.4305 12.6215 39.92 12.6491 40.2509 12.4167C40.5547 12.2122 40.7267 11.8109 40.7267 11.4287C40.7267 11.0736 40.5153 10.6489 40.2115 10.4714ZM39.7854 8.4837C40.0368 8.29231 40.1686 7.9511 40.1686 7.63681C40.1686 7.29541 40.01 6.96766 39.7193 6.79032C39.4151 6.61299 38.8592 6.65396 38.5021 6.65396H38.0101V8.7024H38.661C39.0313 8.7022 39.4681 8.72951 39.7854 8.4837ZM45.3477 0H33.0269C31.1828 0 29.6875 1.49526 29.6875 3.33984V15.6602C29.6875 17.5043 31.1828 19 33.0269 19H45.3477C47.1918 19 48.6875 17.5043 48.6875 15.6602V3.33984C48.6875 1.49526 47.1918 0 45.3477 0ZM39.7029 14.3559H35.8213V4.9877H40.0623C41.2908 4.9877 42.4242 5.76967 42.4242 7.14895C42.4242 8.21394 41.8297 8.94326 41.0713 9.16988V9.19739C42.1958 9.42974 42.999 10.0405 42.999 11.514C42.999 12.8776 42.0704 14.3559 39.7029 14.3559Z" fill="white"/>
</g>
<g clip-path="url(#clip1_19_331)">
<path d="M74.8125 0H62.9375C60.9698 0 59.375 1.59482 59.375 3.56248V15.4375C59.375 17.4052 60.9698 19 62.9375 19H74.8125C76.7802 19 78.375 17.4051 78.375 15.4375V3.56248C78.375 1.59482 76.7802 0 74.8125 0ZM74.7116 11.6268C74.6474 12.4177 74.0466 13.427 73.207 13.5731C70.5173 13.7821 67.3301 13.756 64.5442 13.5731C63.675 13.4638 63.1038 12.4165 63.0397 11.6268C62.9043 9.96667 62.9043 9.02141 63.0397 7.36129C63.1038 6.57161 63.6892 5.53015 64.5442 5.43517C67.298 5.20359 70.5031 5.25347 73.207 5.43517C74.1736 5.47078 74.6474 6.46711 74.7116 7.25798C74.8445 8.9181 74.8445 9.96667 74.7116 11.6268Z" fill="white"/>
<path d="M67.6875 11.875L71.25 9.5L67.6875 7.125V11.875Z" fill="white"/>
</g>
<defs>
<clipPath id="clip0_19_331">
<rect width="19" height="19" fill="white" transform="translate(29.6875)"/>
</clipPath>
<clipPath id="clip1_19_331">
<rect width="19" height="19" fill="white" transform="translate(59.375)"/>
</clipPath>
</defs>
</svg>
